<svg xmlns="http://www.w3.org/2000/svg" viewBox="0 0 512 512">
  <defs>
    <linearGradient id="pill-grad" x1="0" y1="0" x2="1" y2="0">
      <stop offset="0%" stop-color="#2563EB"/>
      <stop offset="45%" stop-color="#60A5FA"/>
      <stop offset="55%" stop-color="#60A5FA"/>
      <stop offset="100%" stop-color="#2563EB"/>
    </linearGradient>
    <linearGradient id="pill-shine" x1="0" y1="0" x2="0" y2="1">
      <stop offset="0%" stop-color="rgba(255,255,255,0.25)"/>
      <stop offset="100%" stop-color="rgba(255,255,255,0)"/>
    </linearGradient>
  </defs>
  <rect x="96" y="146" width="320" height="220" rx="110" ry="110" fill="url(#pill-grad)"/>
  <rect x="106" y="146" width="120" height="220" rx="110" ry="110" fill="url(#pill-shine)"/>
  <g fill="#E0E7FF" opacity="0.95">
    <ellipse cx="192" cy="226" rx="28" ry="32"/>
    <ellipse cx="320" cy="226" rx="28" ry="32"/>
    <path d="M210 282 Q256 310 302 282" fill="#94A3B8"/>
    <rect x="210" y="282" width="92" height="14" rx="4"/>
    <rect x="222" y="282" width="10" height="18" rx="3"/>
    <rect x="246" y="282" width="10" height="18" rx="3"/>
    <rect x="270" y="282" width="10" height="18" rx="3"/>
    <ellipse cx="256" cy="262" rx="10" ry="8" fill="#1E40AF"/>
    <ellipse cx="222" cy="224" rx="10" ry="12"/>
    <ellipse cx="290" cy="224" rx="10" ry="12"/>
    <ellipse cx="222" cy="224" rx="6" ry="8" fill="#1E40AF"/>
    <ellipse cx="290" cy="224" rx="6" ry="8" fill="#1E40AF"/>
  </g>
</svg>
